<?xml version="1.0" encoding="UTF-8" standalone="no"?>
<svg width="172.48299" height="285.46353" viewBox="0 0 45.636124 75.528893" xmlns="http://www.w3.org/2000/svg">
  <path style="color:#000000;fill:#000000;stroke-linecap:round;stroke-linejoin:round" d="M 10.064502 0.00051676433 C 9.9826332 -0.00075665934 9.9017119 0.00091681611 9.8221396 0.0056844076 C 9.1855613 0.043825129 8.6249071 0.27101471 8.187614 0.63096924 C 7.3130278 1.3508784 6.9087011 2.5106543 7.0858724 3.5899618 C 7.2638313 4.6740757 8.1328566 5.5802166 9.2557659 5.9489909 C 10.378675 6.3177654 11.793323 6.0979163 12.955282 4.9392334 A 0.5 0.5 0 0 0 12.956832 4.2322998 A 0.5 0.5 0 0 0 12.249898 4.2302328 C 11.3189 5.1586058 10.363351 5.2612785 9.5684083 5.0002116 C 8.7734658 4.7391448 8.1765842 4.0625303 8.0723755 3.4276978 C 7.9555335 2.7159088 8.2500475 1.8750122 8.8222006 1.4040487 C 9.3943537 0.93308511 10.2209 0.74368974 11.437545 1.3983643 A 0.5 0.5 0 0 0 12.115023 1.1952759 A 0.5 0.5 0 0 0 11.911934 0.51779786 C 11.264356 0.16933673 10.637584 0.00943073 10.064502 0.00051676433 z M 17.07131 0.34933268 A 0.50005 0.50005 0 0 0 16.990178 0.36121826 C 16.990178 0.36121826 16.307732 0.51136787 15.68173 0.42788086 A 0.50005 0.50005 0 0 0 15.115357 0.94516195 L 15.11484 0.94464519 C 15.110499 0.96208554 15.081471 1.280048 15.015621 1.6288412 C 14.945381 2.0008873 14.843082 2.4693317 14.72675 2.947107 C 14.494084 3.9026574 14.168302 4.9484164 14.011548 5.2441244 A 0.5 0.5 0 0 0 14.220838 5.9200521 A 0.5 0.5 0 0 0 14.896248 5.7128296 C 15.075935 5.3738627 15.245227 4.8759833 15.404228 4.3165324 L 17.264579 4.2090454 C 17.290734 4.3120697 17.31688 4.4130354 17.343644 4.5098023 C 17.472349 4.9751425 17.546765 5.317223 17.798914 5.6327312 A 0.5 0.5 0 0 0 18.501713 5.7107626 A 0.5 0.5 0 0 0 18.580261 5.0079631 C 18.601291 5.0342768 18.425118 4.671635 18.306893 4.2441854 C 18.188668 3.8167358 18.06825 3.2842381 17.962728 2.7677897 C 17.751682 1.7348931 17.597892 0.76946208 17.597892 0.76946208 A 0.50005 0.50005 0 0 0 17.07131 0.34933268 z M 29.002881 0.42322998 A 0.50005 0.50005 0 0 0 28.921749 0.43563233 C 28.921749 0.43563233 28.239304 0.58526527 27.613302 0.50177816 A 0.50005 0.50005 0 0 0 27.046928 1.019576 L 27.046411 1.0190593 C 27.04207 1.0364996 27.013043 1.354462 26.947193 1.7032552 C 26.876953 2.0753013 26.776721 2.5437458 26.660388 3.021521 C 26.427724 3.9770714 26.101941 5.0228303 25.945187 5.3185384 A 0.5 0.5 0 0 0 26.152409 5.9939494 A 0.5 0.5 0 0 0 26.828337 5.7872437 C 27.008089 5.448152 27.177265 4.9501323 27.336316 4.3904297 L 29.196151 4.2834595 C 29.222283 4.3863851 29.248476 4.4875375 29.275216 4.5842163 C 29.40392 5.0495565 29.480404 5.3895701 29.732552 5.7050782 A 0.5 0.5 0 0 0 30.435352 5.7851766 A 0.5 0.5 0 0 0 30.5139 5.0818604 C 30.534923 5.1081743 30.35824 4.746049 30.240015 4.3185995 C 30.12179 3.8911499 30.001889 3.3560683 29.896367 2.83962 C 29.685322 1.8067232 29.531014 0.84180908 29.531014 0.84180909 A 0.50005 0.50005 0 0 0 29.002881 0.42322998 z M 22.570715 0.57205811 C 22.136194 0.57750104 21.74241 0.69469385 21.414197 0.90640463 C 20.714012 1.3580543 20.34147 2.1492775 20.291268 2.949174 C 20.241068 3.7490704 20.524791 4.6054032 21.230229 5.1464559 C 21.935666 5.6875086 23.003865 5.8498016 24.351485 5.4528972 A 0.5 0.5 0 0 0 24.689449 4.8322632 A 0.5 0.5 0 0 0 24.070366 4.4942993 C 22.923257 4.8321485 22.239748 4.6619138 21.837944 4.3537395 C 21.436138 4.0455652 21.256145 3.5374333 21.28914 3.0117025 C 21.32214 2.4859716 21.578844 1.9889444 21.955249 1.7461467 C 22.331655 1.503349 22.854007 1.4274749 23.677625 1.8867066 A 0.5 0.5 0 0 0 24.359237 1.6934367 A 0.5 0.5 0 0 0 24.165967 1.0138916 C 23.641304 0.72135096 23.127186 0.58223412 22.658049 0.57205811 C 22.628728 0.57142211 22.599684 0.57169525 22.570715 0.57205811 z M 34.781857 0.59221192 C 34.272725 0.59741275 33.753175 0.74803496 33.308561 1.0800374 C 32.739456 1.5050006 32.318761 2.2152408 32.17013 3.1739665 C 32.056495 3.9069591 32.301901 4.5735435 32.736503 5.0255331 C 33.171107 5.4775227 33.770567 5.7351587 34.39635 5.7949952 C 35.022135 5.8548311 35.687099 5.7139247 36.2443 5.3221558 C 36.801499 4.9303869 37.229794 4.2815825 37.379114 3.4256307 C 37.508081 2.6863504 37.276511 1.9997504 36.855632 1.5115357 C 36.434752 1.023321 35.840944 0.71538205 35.205087 0.62115072 C 35.065993 0.60053762 34.924413 0.59075569 34.781857 0.59221192 z M 16.691488 1.3611572 C 16.740728 1.6583395 16.814349 2.1340252 16.984493 2.966744 C 17.001729 3.0510988 17.019788 3.1360874 17.03772 3.220992 L 15.670878 3.2995402 C 15.680371 3.2609212 15.689891 3.2224304 15.6993 3.183785 C 15.819339 2.6907846 15.923438 2.2092426 15.99799 1.8143596 C 16.03239 1.63213 16.02951 1.5292345 16.0507 1.3926799 C 16.342811 1.3821469 16.524935 1.3898072 16.691488 1.3611572 z M 28.623059 1.4355713 C 28.672299 1.7327536 28.74592 2.2084393 28.916065 3.0411581 C 28.933284 3.1254331 28.95086 3.210065 28.968775 3.2948893 L 27.60245 3.372404 C 27.611862 3.3341096 27.621541 3.2960024 27.630872 3.2576823 C 27.750912 2.764682 27.855011 2.2836566 27.929562 1.8887736 C 27.963972 1.7064872 27.963139 1.6031653 27.984339 1.4665772 C 28.275307 1.4559332 28.457012 1.4641413 28.623059 1.4355713 z M 34.830949 1.5906006 C 34.906732 1.5918259 34.982877 1.5979465 35.058842 1.6092041 C 35.463988 1.6692451 35.848815 1.8772424 36.097538 2.1657593 C 36.346263 2.4542762 36.473386 2.8028876 36.394678 3.254065 C 36.284534 3.8854501 36.010587 4.2647728 35.670174 4.5041179 C 35.329762 4.743463 34.902722 4.8379507 34.491952 4.7986735 C 34.081182 4.7593964 33.698561 4.5833916 33.456873 4.3320353 C 33.215186 4.0806792 33.088639 3.775002 33.158183 3.326412 C 33.275715 2.5682912 33.56904 2.1329794 33.906458 1.8810221 C 34.18061 1.6763068 34.502556 1.5852907 34.830949 1.5906006 z M 44.814319 7.042981 L 41.208854 7.0646851 A 0.50005 0.50005 0 0 0 40.712761 7.5390748 L 40.474532 12.18737 A 0.50005 0.50005 0 0 0 40.968559 12.712919 L 45.131096 12.753744 A 0.5 0.5 0 0 0 45.636491 12.25765 A 0.5 0.5 0 0 0 45.140397 11.753805 L 41.499793 11.718665 L 41.565422 10.433989 L 44.841708 10.394714 A 0.5 0.5 0 0 0 45.335734 9.8888022 A 0.5 0.5 0 0 0 44.829822 9.3947755 L 41.617098 9.4335328 L 41.687378 8.06049 L 44.818453 8.04292 A 0.5 0.5 0 0 0 45.316614 7.5411418 A 0.5 0.5 0 0 0 44.814319 7.042981 z M 37.773922 7.0465984 C 37.429097 7.0485609 37.065788 7.0647023 36.710421 7.086906 A 0.5 0.5 0 0 0 36.597766 7.0739869 A 0.5 0.5 0 0 0 36.432919 7.1055095 C 35.427371 7.1778581 34.55293 7.2910279 34.55293 7.2910279 A 0.5 0.5 0 0 0 34.120915 7.8517172 A 0.5 0.5 0 0 0 34.681604 8.2832154 C 34.681604 8.2832154 35.316498 8.1996573 36.114075 8.1318034 L 36.181771 12.367204 A 0.5 0.5 0 0 0 36.689234 12.859164 A 0.5 0.5 0 0 0 37.18171 12.351701 L 37.11298 8.0651408 C 37.470309 8.0487452 37.821005 8.0416807 38.124805 8.0506714 C 38.562961 8.0636384 38.93369 8.1527327 38.947494 8.1602255 A 0.5 0.5 0 0 0 39.624972 7.9592042 A 0.5 0.5 0 0 0 39.42395 7.2812094 C 39.044115 7.0750276 38.646622 7.0653042 38.154261 7.0507325 C 38.03117 7.0470895 37.903797 7.0458592 37.773922 7.0465984 z M 31.58877 7.2186809 C 31.058615 7.2231235 30.606404 7.2838262 30.224512 7.3907634 C 29.613485 7.5618629 29.150617 7.8565236 28.937252 8.3162883 C 28.723887 8.7760529 28.874149 9.3315472 29.218889 9.6970826 C 29.563628 10.062618 30.078263 10.3157 30.738176 10.458793 C 31.435494 10.609998 31.868502 10.875156 32.062643 11.095447 C 32.256783 11.315738 32.255024 11.427541 32.177881 11.580172 C 32.100741 11.732804 31.845896 11.962503 31.320569 12.097453 C 30.795244 12.232404 30.023065 12.269226 29.023552 12.093836 A 0.5 0.5 0 0 0 28.445292 12.500012 A 0.5 0.5 0 0 0 28.851469 13.078272 C 29.957718 13.272398 30.860677 13.248249 31.568616 13.066386 C 32.276556 12.884525 32.812489 12.54147 33.070333 12.031307 C 33.328178 11.521145 33.207402 10.881602 32.812468 10.433472 C 32.417533 9.985341 31.790619 9.6651157 30.949016 9.4826254 C 30.431201 9.3703442 30.096207 9.1700509 29.947009 9.0118531 C 29.797811 8.8536551 29.810001 8.8154615 29.845724 8.7384848 C 29.881444 8.6615078 30.053938 8.4767946 30.494263 8.3534953 C 30.934586 8.2301962 31.612635 8.1729637 32.523596 8.2697795 A 0.5 0.5 0 0 0 33.0724 7.8243287 A 0.5 0.5 0 0 0 32.629016 7.2734579 C 32.253308 7.2335282 31.906862 7.2160153 31.58877 7.2186809 z M 24.131344 7.6842855 C 24.027356 7.6853845 23.922392 7.6946659 23.818185 7.7127076 C 23.484722 7.7704409 23.155928 7.9175099 22.868889 8.1622925 C 22.294808 8.6518577 21.880692 9.4703013 21.656043 10.6717 C 21.291407 12.6217 22.154273 14.110614 23.437329 14.357263 C 24.078858 14.480588 24.776705 14.265419 25.331787 13.745931 C 25.886871 13.226449 26.316659 12.417804 26.54515 11.312488 C 26.876422 9.7099871 26.026019 8.2319864 24.796936 7.7948731 C 24.585688 7.7197443 24.360117 7.6818678 24.131344 7.6842855 z M 24.106022 8.6702719 C 24.222453 8.6684818 24.340347 8.6927592 24.463106 8.7364177 C 25.117825 8.9692632 25.798928 9.976623 25.564331 11.111467 C 25.366683 12.067582 25.009863 12.677673 24.648625 13.015743 C 24.287387 13.353813 23.938804 13.434838 23.626982 13.374894 C 23.003337 13.255007 22.339465 12.458691 22.638928 10.857218 C 22.837102 9.7974068 23.191157 9.2001743 23.517428 8.9219361 C 23.721348 8.7480372 23.911971 8.6732554 24.106022 8.6702719 z M 8.9849813 9.4025269 C 8.9210861 9.4033049 8.8576113 9.4058478 8.7948121 9.4102784 C 7.7900252 9.481168 6.9191017 9.9289953 6.3866903 10.202995 A 0.50005 0.50005 0 0 0 6.1717164 10.876856 C 6.1717164 10.876856 6.7139397 11.968326 6.8378256 12.761495 C 6.8438756 12.800245 6.8620051 13.068345 6.8672811 13.427604 C 6.8725611 13.786865 6.8721411 14.262693 6.8672811 14.828036 C 6.8575611 15.95872 6.8299051 17.447345 6.7949341 19.101677 C 6.7249932 22.410341 6.6246754 26.380049 6.5799602 29.488123 A 0.50005 0.50005 0 0 0 7.4512248 29.830221 C 10.471407 26.487294 11.933053 22.400647 12.464872 18.855697 C 12.730782 17.083222 12.764358 15.44414 12.638505 14.088029 C 12.512651 12.731918 12.247892 11.669358 11.812716 10.970907 A 0.50005 0.50005 0 0 0 11.80083 10.953337 C 11.012229 9.8007886 9.9434104 9.3908569 8.9849813 9.4025269 z M 17.908984 9.4180299 C 17.640502 9.4234832 17.358611 9.4604719 17.066659 9.5332683 C 15.779266 9.854273 14.128853 10.47843 14.128853 10.47843 A 0.50005 0.50005 0 0 0 13.892692 11.228772 L 14.599626 12.263851 C 14.604026 12.506095 14.697294 17.574833 14.697294 18.402494 A 0.5 0.5 0 0 0 15.197522 18.902206 A 0.5 0.5 0 0 0 15.697233 18.402494 C 15.697233 17.940417 15.67137 16.705699 15.64659 15.241964 C 15.675753 15.235314 16.212267 15.115191 17.311088 14.64045 C 17.461655 15.026767 17.700353 15.572852 18.033008 16.136483 C 18.651835 17.184985 19.615773 18.364256 21.06073 18.59163 A 0.5 0.5 0 0 0 21.632788 18.175635 A 0.5 0.5 0 0 0 21.216793 17.603577 C 20.250355 17.451501 19.44385 16.557814 18.894454 15.626953 C 18.578242 15.091183 18.35526 14.570059 18.22266 14.223421 C 18.474869 14.101975 18.745831 13.966936 19.037081 13.816211 C 20.356789 13.133246 20.802075 11.808818 20.349662 10.791073 C 19.982074 9.9641545 19.072407 9.3943986 17.908984 9.4180299 z M 9.1400106 10.400916 C 9.7767396 10.414857 10.382936 10.663157 10.966773 11.509892 C 11.240419 11.953487 11.525773 12.921635 11.6427 14.181563 C 11.76013 15.446904 11.731114 17.011812 11.476819 18.706869 C 11.029333 21.689669 9.8236982 25.040766 7.6114218 27.962634 C 7.6616587 25.132419 7.7352588 21.943023 7.7948731 19.122864 C 7.8298761 17.466973 7.8574271 15.975177 7.8672201 14.835787 C 7.8721201 14.266092 7.8726901 13.784906 7.8672201 13.412101 C 7.8617501 13.039298 7.8568607 12.802548 7.8263957 12.607499 C 7.700467 11.801247 7.4231268 11.316449 7.2481364 10.954887 C 7.7324921 10.723184 8.2721668 10.449982 8.865092 10.40815 C 8.9573223 10.401643 9.0490494 10.398924 9.1400106 10.400916 z M 18.02629 10.407634 C 18.794198 10.406395 19.249462 10.778724 19.435506 11.197249 C 19.673643 11.732961 19.545632 12.427232 18.578194 12.927893 C 18.169398 13.139449 17.814569 13.313837 17.504358 13.459644 A 0.5 0.5 0 0 0 17.453198 13.470496 A 0.5 0.5 0 0 0 17.281116 13.563513 C 16.181438 14.066126 15.738688 14.156215 15.631087 14.181563 C 15.616627 13.360961 15.597498 12.097453 15.597498 12.097453 A 0.50005 0.50005 0 0 0 15.511715 11.826152 L 15.09572 11.216886 C 15.57695 11.042269 16.379544 10.734867 17.306437 10.503752 C 17.571384 10.437689 17.811276 10.40798 18.02629 10.407634 z M 28.474748 16.761251 C 28.383186 16.763413 28.286421 16.784571 28.189494 16.843933 C 27.93191 17.001684 27.465068 17.372659 26.824203 17.892448 C 26.183337 18.412238 25.397332 19.065125 24.615035 19.722827 C 23.050442 21.038233 21.51875 22.356119 21.140829 22.709208 C 20.788951 23.037971 20.564796 23.251717 20.415808 23.53138 C 20.266819 23.811044 20.229196 24.103331 20.19515 24.511682 C 20.19085 24.562832 20.150878 24.803459 20.08973 25.120947 C 20.02858 25.438435 19.946412 25.851734 19.851502 26.322424 C 19.661684 27.263804 19.42372 28.437827 19.220532 29.568221 C 19.017345 30.698616 18.847186 31.780468 18.791101 32.560287 C 18.763061 32.950195 18.756406 33.254723 18.814356 33.51165 C 18.843326 33.640113 18.876947 33.786639 19.054651 33.902324 C 19.143501 33.960164 19.270016 33.984476 19.36936 33.968986 C 19.4687 33.953486 19.542287 33.914348 19.603455 33.871318 C 20.5458 33.208495 21.280491 33.194321 22.361426 33.533354 C 23.554475 33.90755 24.775676 33.796794 26.108484 32.645553 C 26.297144 32.803173 26.510624 32.921737 26.750822 32.984033 L 26.681576 33.79277 C 26.52514 33.85996 25.921901 34.11641 25.089942 34.515723 C 24.623421 34.739638 24.137589 34.985384 23.720516 35.220589 C 23.303445 35.455795 22.9663 35.66025 22.744348 35.89445 C 22.017973 36.660896 21.533053 38.011267 21.533053 39.445138 C 21.533053 40.037965 21.310058 40.792143 21.089669 41.544751 C 20.86928 42.29736 20.642939 43.047439 20.736202 43.740483 C 20.825762 44.406032 21.176274 45.196595 21.62297 46.009595 C 21.994882 46.686489 22.43624 47.367468 22.864754 47.955213 C 21.722331 47.863712 20.401794 47.794849 18.977653 47.748507 C 19.249711 47.377934 19.469433 46.925409 19.640662 46.435409 C 19.917424 45.643406 20.058252 44.750465 19.994129 43.926001 A 0.35003499 0.35003499 0 0 0 19.79104 43.634546 C 19.139402 43.336665 18.056127 43.226643 16.925582 43.245939 C 15.795038 43.265229 14.661738 43.410424 13.943335 43.84952 A 0.35003499 0.35003499 0 0 0 13.777454 44.11152 C 13.714934 44.703931 13.905995 45.383433 14.232206 46.093828 C 14.475968 46.624669 14.802115 47.16895 15.184086 47.679261 C 14.33687 47.675123 13.478487 47.678248 12.621452 47.688046 C 12.671236 47.420231 12.688257 47.019833 12.705168 46.464864 C 12.723398 45.866926 12.732096 45.122754 12.732556 44.332178 C 12.733491 42.751026 12.703634 40.992391 12.665894 39.896273 A 0.35003499 0.35003499 0 0 0 12.414229 39.572262 C 11.904716 39.423881 10.915226 39.371624 9.7735637 39.374858 C 8.6319012 39.378058 7.4000756 39.453185 6.5525717 39.656494 A 0.35003499 0.35003499 0 0 0 6.2854045 39.970687 C 6.2154216 40.9389 6.2404104 42.722011 6.2792033 44.404525 C 6.3129333 45.867449 6.3576865 47.257603 6.3660197 47.895268 C 5.8354233 47.926284 5.31845 47.960463 4.823995 47.998104 A 0.34999999 0.34999999 0 0 0 4.5413249 48.190857 A 0.34999999 0.34999999 0 0 0 4.4782797 48.529338 C 4.5714316 48.790464 4.6579506 49.046522 4.8751547 49.259526 C 5.0923587 49.472529 5.4215148 49.570452 5.8104981 49.554598 C 7.8207228 49.472669 10.264518 49.437038 12.639022 49.430575 C 12.680815 49.990245 12.850808 50.440293 13.14235 50.763827 C 13.479483 51.137953 13.95778 51.313907 14.459066 51.345703 C 15.408926 51.405953 16.496511 50.990331 17.49609 50.406226 C 17.59372 50.441998 17.688677 50.477034 17.783411 50.512163 C 17.748201 51.036001 17.817108 51.885967 17.945158 52.943539 C 18.082881 54.080998 18.297194 55.426895 18.55494 56.7092 C 18.812687 57.991506 19.112111 59.206548 19.435506 60.095557 C 19.597204 60.540062 19.761263 60.900493 19.954854 61.16991 C 20.051654 61.304618 20.155324 61.420454 20.30057 61.50374 C 20.345827 61.529692 20.398081 61.550104 20.453015 61.564718 C 20.407588 61.958562 20.363184 62.35436 20.322274 62.753793 C 19.838679 67.475486 19.66934 72.472392 19.779155 75.193344 A 0.34999999 0.34999999 0 0 0 20.14244 75.52924 A 0.34999999 0.34999999 0 0 0 20.478337 75.163888 C 20.371102 72.506862 20.53717 67.51217 21.017322 62.824073 C 21.07603 62.250862 21.139737 61.682345 21.208008 61.122885 C 21.24924 61.014757 21.27772 60.897477 21.302576 60.767351 C 21.359631 60.46867 21.389807 60.098068 21.401278 59.664576 C 21.570313 58.476242 21.761575 57.351428 21.976437 56.347465 C 22.372991 54.494529 22.871696 53.035799 23.369116 52.36683 C 23.608083 52.467038 23.851947 52.553145 24.092586 52.617977 C 21.672673 57.837002 21.751952 67.262847 21.752161 74.982504 A 0.34999999 0.34999999 0 0 0 22.101493 75.331836 A 0.34999999 0.34999999 0 0 0 22.452893 74.982504 C 22.452683 67.209107 22.451772 57.700663 24.773682 52.814348 A 0.34999999 0.34999999 0 0 0 24.798487 52.740967 C 24.850124 52.744166 24.90079 52.746135 24.950932 52.746135 C 25.687723 52.746135 26.972555 52.699921 28.233936 52.819515 C 28.160628 53.733466 28.229649 55.330432 28.556397 56.74434 C 28.721748 57.459852 28.950965 58.125467 29.291236 58.636731 C 29.631505 59.147996 30.140282 59.524915 30.757813 59.47854 C 31.76747 59.402719 32.693693 59.328638 33.570044 59.21189 C 34.226077 65.940614 34.662255 68.951782 36.006071 75.240369 A 0.34999999 0.34999999 0 0 0 36.419999 75.509603 A 0.34999999 0.34999999 0 0 0 36.689234 75.093608 C 35.345988 68.807689 34.920455 65.852555 34.263542 59.10802 C 35.357644 58.923792 36.382977 58.64737 37.405986 58.180428 A 0.34999999 0.34999999 0 0 0 37.408053 58.189213 C 40.028994 64.204057 41.120102 68.024543 42.183472 75.1365 A 0.34999999 0.34999999 0 0 0 42.581897 75.431572 A 0.34999999 0.34999999 0 0 0 42.87697 75.033147 C 41.808604 67.887772 40.686956 63.957606 38.050908 57.908094 A 0.34999999 0.34999999 0 0 0 38.027136 57.871403 C 39.640236 57.009196 41.283066 55.628507 43.220618 53.343514 C 43.890089 52.553991 44.133578 51.855032 44.13064 51.197392 C 44.12774 50.539751 43.911033 49.95834 43.753919 49.296733 C 43.677896 48.976585 43.512406 48.240127 43.272294 47.269466 C 43.342419 47.227702 43.407242 47.184424 43.465048 47.138725 A 0.34999999 0.34999999 0 0 0 43.523442 46.646249 A 0.34999999 0.34999999 0 0 0 43.288831 46.515507 A 0.34999999 0.34999999 0 0 0 43.09091 46.551164 C 42.854719 45.630748 42.566628 44.570391 42.226363 43.458846 C 42.185561 43.325557 42.143968 43.191176 42.101823 43.056804 A 0.34999999 0.34999999 0 0 0 42.113192 42.607219 A 0.34999999 0.34999999 0 0 0 41.918889 42.485262 C 41.129245 40.0591 40.124124 37.563765 38.904086 35.984367 C 38.612242 35.606564 38.108258 35.358251 37.4804 35.085714 C 36.852541 34.813178 36.106546 34.554871 35.386471 34.328137 C 34.037418 33.903355 32.938867 33.637086 32.785079 33.5995 L 32.410942 32.71635 A 0.35003499 0.35003499 0 0 0 32.494141 32.503959 C 32.532169 31.501279 32.663599 29.920914 32.763375 28.810128 C 32.972168 29.242182 33.174224 29.647404 33.373157 29.991968 A 0.35003499 0.35003499 0 0 0 33.916276 30.072066 C 33.916276 30.072066 36.625367 27.538552 37.734648 26.093498 A 0.34999999 0.34999999 0 0 0 37.670052 25.603605 A 0.34999999 0.34999999 0 0 0 37.179643 25.667684 C 36.257076 26.869504 34.168776 28.837998 33.763831 29.222506 C 33.487077 28.697619 33.197124 28.069005 32.871896 27.406079 A 0.34999999 0.34999999 0 0 0 32.812984 27.287223 C 32.67603 27.010161 32.533782 26.728996 32.382003 26.445931 A 0.34999999 0.34999999 0 0 0 32.376835 26.316223 C 32.211166 25.593987 31.612098 23.879566 30.93558 22.094259 A 0.34999999 0.34999999 0 0 0 31.222901 21.888587 A 0.34999999 0.34999999 0 0 0 31.043067 21.427633 C 30.907798 21.368502 30.763581 21.308289 30.612085 21.250383 C 30.248395 20.313377 29.88016 19.406091 29.56047 18.675863 C 29.400842 18.311244 29.255129 17.994197 29.124837 17.733285 C 29.267983 17.815003 29.427279 17.913275 29.597677 18.025256 C 30.274817 18.470257 31.134575 19.126023 32.005799 19.810677 C 32.877022 20.495332 33.761399 21.210241 34.50022 21.783167 C 34.869631 22.069629 35.20162 22.319294 35.482589 22.515422 C 35.763557 22.71155 35.977465 22.852689 36.185388 22.931417 C 36.684837 23.120524 37.317668 23.503001 37.800794 23.962879 C 38.28392 24.422756 38.597644 24.95066 38.597644 25.392765 C 38.597644 25.746059 38.67288 26.279435 38.777478 26.951327 C 38.882076 27.623218 39.017391 28.417249 39.144381 29.222506 C 39.398361 30.833021 39.598602 32.534788 39.488546 33.183504 C 39.427706 33.542131 39.327038 33.725835 39.271505 33.785018 C 39.215975 33.844198 39.225875 33.836158 39.150582 33.820158 C 39.000002 33.788138 38.638848 33.503361 38.396623 33.238281 C 38.138481 32.955781 37.791564 32.926706 37.417871 32.908069 C 37.044178 32.889429 36.616611 32.917059 36.179704 32.941659 C 35.305893 32.990889 34.377901 32.992075 34.017562 32.804716 A 0.34999999 0.34999999 0 0 0 33.544723 32.955095 A 0.34999999 0.34999999 0 0 0 33.695101 33.425867 C 34.38962 33.786993 35.345616 33.688064 36.220528 33.638774 C 36.657985 33.614134 37.070228 33.591661 37.382731 33.607251 C 37.695236 33.622841 37.880023 33.712433 37.878825 33.711121 C 38.15049 34.008421 38.502693 34.397284 39.003821 34.503837 C 39.254386 34.557117 39.576031 34.484226 39.783102 34.263542 C 39.990172 34.042859 40.104535 33.733333 40.17791 33.30081 C 40.336293 32.36723 40.091608 30.735495 39.835812 29.113469 C 39.707915 28.302456 39.572253 27.507675 39.468909 26.84384 C 39.365565 26.180004 39.296826 25.632585 39.296826 25.392765 C 39.296826 24.648643 38.843844 23.990392 38.283452 23.456966 C 37.72306 22.923541 37.037245 22.504265 36.433435 22.275643 C 36.365545 22.249943 36.146422 22.12548 35.882565 21.941297 C 35.618708 21.757114 35.292348 21.513088 34.927584 21.230229 C 34.198058 20.664511 33.315895 19.948632 32.439364 19.259806 C 31.562833 18.570981 30.695369 17.909685 29.982666 17.441313 C 29.626315 17.207127 29.309769 17.020477 29.03337 16.900261 C 28.895171 16.840151 28.766489 16.79498 28.632878 16.773653 C 28.582774 16.765655 28.529685 16.759954 28.474748 16.761251 z M 28.45046 17.951876 C 28.457811 17.96608 28.465246 17.979575 28.472681 17.994251 C 28.59997 18.245489 28.752399 18.57488 28.919682 18.956983 C 29.174707 19.539505 29.464239 20.244031 29.757874 20.98735 C 29.726093 20.980196 29.694397 20.973247 29.662272 20.966679 C 29.148279 20.861587 28.591957 20.834072 28.02723 20.970813 C 27.573633 21.08065 27.127855 21.300924 26.710515 21.660177 C 27.205313 20.041788 28.010466 18.610211 28.45046 17.951876 z M 27.387476 18.336349 C 26.868507 19.247166 26.255756 20.557209 25.884725 22.015711 A 0.34999999 0.34999999 0 0 0 26.040271 22.39915 C 25.688076 22.886264 25.370684 23.507485 25.105445 24.28534 A 0.34999999 0.34999999 0 0 0 25.120431 24.544238 C 25.06396 24.704629 25.016705 24.860136 24.966952 25.000025 C 24.830029 25.384999 24.754557 25.990455 24.718905 26.751856 C 24.683255 27.513256 24.700161 28.410163 24.802621 29.285034 C 24.824468 29.471578 24.850334 29.65703 24.880135 29.840039 C 24.527132 29.570368 24.059919 29.162336 23.599593 28.681454 C 22.906403 27.957306 22.206244 27.057418 21.808488 26.193233 A 0.34999999 0.34999999 0 0 0 21.345467 26.021668 A 0.34999999 0.34999999 0 0 0 21.173902 26.486239 C 21.623654 27.463392 22.366227 28.404077 23.095748 29.166179 C 23.82527 29.928279 24.517214 30.499429 24.97677 30.750061 A 0.34999999 0.34999999 0 0 0 25.083224 30.786235 C 25.172483 31.110366 25.280349 31.416854 25.411886 31.695223 C 25.481894 31.84338 25.561039 31.984939 25.648047 32.11742 C 24.449875 33.155611 23.619689 33.194347 22.570199 32.865178 C 21.484693 32.524712 20.491341 32.597769 19.493901 33.183504 C 19.481981 33.045547 19.470313 32.889059 19.490283 32.611446 C 19.542343 31.887564 19.709032 30.813623 19.910413 29.693278 C 20.111795 28.572933 20.347454 27.40218 20.537248 26.460917 C 20.632148 25.990287 20.715384 25.576477 20.777543 25.253756 C 20.839703 24.931035 20.880404 24.718637 20.892782 24.570077 C 20.925332 24.17962 20.955437 24.007317 21.033342 23.861076 C 21.111252 23.714835 21.273195 23.542292 21.617285 23.220805 C 21.935333 22.923656 23.504133 21.569631 25.06462 20.257678 C 25.844864 19.601703 26.627928 18.951025 27.263452 18.435567 C 27.307382 18.399937 27.344945 18.370605 27.387476 18.336349 z M 28.774471 21.581629 C 29.217109 21.576497 29.66237 21.670946 30.077234 21.805388 C 30.414394 22.682769 30.742886 23.57872 31.017228 24.360787 C 30.31815 23.546546 29.476689 22.957428 28.431856 22.922115 C 27.508356 22.89088 26.844773 22.984758 26.357048 23.179464 C 26.914161 22.219846 27.554934 21.806582 28.191561 21.652425 C 28.38329 21.605999 28.578632 21.583899 28.774471 21.581629 z M 28.17089 23.61613 C 28.247205 23.616827 28.326284 23.618531 28.408085 23.621297 C 29.572218 23.660647 30.516604 24.664311 31.324186 25.999964 C 31.63068 26.506871 31.911653 27.051691 32.175814 27.590564 C 32.142968 27.931399 31.884111 30.637595 31.808395 32.29467 C 30.777382 33.13214 29.895221 33.49387 29.238526 33.498214 C 28.760265 33.501369 28.382183 33.349069 28.082524 33.057931 C 29.679787 32.949291 30.55185 32.152621 30.912325 31.804777 A 0.34999999 0.34999999 0 0 0 30.922144 31.310751 A 0.34999999 0.34999999 0 0 0 30.42605 31.300932 C 29.990967 31.720769 29.141926 32.590715 27.035043 32.326192 C 26.636053 32.276102 26.314517 31.967072 26.044922 31.396533 C 25.775327 30.825996 25.595228 30.031471 25.498185 29.202869 C 25.401145 28.374267 25.384142 27.509907 25.418087 26.784929 C 25.452037 26.059951 25.549248 25.452333 25.62686 25.234119 C 25.800607 24.745602 25.892344 24.35169 26.199435 24.078117 C 26.487331 23.821643 27.02617 23.605677 28.17089 23.61613 z M 26.560136 26.178247 C 26.39782 26.178983 26.206299 26.214194 25.988078 26.30072 A 0.34999999 0.34999999 0 0 0 25.792741 26.75599 A 0.34999999 0.34999999 0 0 0 26.245943 26.951327 C 26.478096 26.859277 26.589587 26.873337 26.628866 26.882597 C 26.636231 26.884322 26.641537 26.88621 26.644885 26.887765 A 0.34999999 0.34999999 0 0 0 26.645919 26.888281 L 26.646436 26.888281 C 26.646885 26.888689 26.647122 26.889021 26.647469 26.889315 A 0.34999999 0.34999999 0 0 0 27.109457 26.890865 A 0.34999999 0.34999999 0 0 0 27.142529 26.396322 C 27.142529 26.396322 27.087739 26.33843 27.029358 26.30072 C 26.970978 26.26301 26.891065 26.226612 26.79113 26.203052 C 26.722424 26.186858 26.645159 26.177862 26.560136 26.178247 z M 29.153776 26.38702 C 29.049524 26.386921 28.949067 26.395507 28.855603 26.408207 A 0.34999999 0.34999999 0 0 0 28.554846 26.802499 A 0.34999999 0.34999999 0 0 0 28.949138 27.101705 C 29.074499 27.084645 29.237111 27.083992 29.334127 27.103772 C 29.358382 27.108722 29.377954 27.115155 29.391488 27.120309 A 0.34999999 0.34999999 0 0 0 29.392005 27.120309 A 0.34999999 0.34999999 0 0 0 29.790947 27.328048 A 0.34999999 0.34999999 0 0 0 30.056564 26.909986 C 30.021184 26.752291 29.914296 26.622613 29.804899 26.548767 C 29.695503 26.474927 29.583355 26.440132 29.474687 26.418026 C 29.366019 26.395921 29.258028 26.387119 29.153776 26.38702 z M 27.193689 28.672152 C 27.085828 28.672931 26.97189 28.697654 26.853658 28.761552 A 0.34999999 0.34999999 0 0 0 26.713098 29.236459 A 0.34999999 0.34999999 0 0 0 27.184904 29.380636 C 27.16029 29.397362 27.282681 29.388138 27.420032 29.45505 C 27.561808 29.5241 27.679448 29.61318 27.679448 29.61318 A 0.34999999 0.34999999 0 0 0 28.169857 29.548584 A 0.34999999 0.34999999 0 0 0 28.105261 29.058692 C 28.105261 29.058692 27.94116 28.931716 27.724406 28.826148 C 27.582162 28.756868 27.399606 28.670665 27.193689 28.672152 z M 26.893449 30.07465 A 0.34999999 0.34999999 0 0 0 26.570471 30.275155 A 0.34999999 0.34999999 0 0 0 26.736353 30.740243 C 27.217936 30.967488 27.734267 30.836086 28.037049 30.773316 A 0.34999999 0.34999999 0 0 0 28.310417 30.359387 A 0.34999999 0.34999999 0 0 0 27.896489 30.088086 C 27.623265 30.144726 27.173414 30.172506 27.035043 30.107206 A 0.34999999 0.34999999 0 0 0 26.893449 30.07465 z M 31.843018 33.172136 L 32.20527 34.027381 A 0.35003499 0.35003499 0 0 0 32.445565 34.230469 C 32.445565 34.230469 33.762958 34.549431 35.175631 34.994247 C 35.659707 35.14667 36.151654 35.315113 36.605001 35.488273 C 36.104852 36.198066 35.438452 36.457059 34.60719 36.93573 C 33.701005 37.457545 32.667459 38.242924 31.789274 40.07249 C 31.720264 40.216263 31.386441 40.552473 30.929895 40.964942 C 30.473351 41.377409 29.899503 41.895953 29.347563 42.568461 C 28.298284 43.846949 27.331065 45.693787 27.342517 48.377409 C 26.877421 48.023873 26.241485 47.766927 25.617041 47.638436 C 25.559158 47.626526 25.501586 47.615968 25.443925 47.60588 C 25.111519 46.995577 24.678726 45.867404 24.3396 44.777112 C 23.98737 43.644695 23.734469 42.498981 23.734469 42.095622 C 23.734469 41.175018 24.199115 38.530973 24.493596 35.598344 C 24.783439 35.446123 25.0919 35.291842 25.394316 35.146692 C 26.310544 34.706933 27.150281 34.349842 27.150281 34.349842 A 0.35003499 0.35003499 0 0 0 27.361121 34.056836 L 27.420549 33.366956 C 27.867938 33.886518 28.50124 34.202297 29.242143 34.197396 C 30.018055 34.192232 30.889294 33.864746 31.843018 33.172136 z M 11.912968 35.469153 A 0.34999999 0.34999999 0 0 0 11.798763 35.493958 A 0.34999999 0.34999999 0 0 0 11.605493 35.679476 C 11.268646 36.463385 11.215464 36.573746 11.025167 37.244239 A 0.34999999 0.34999999 0 0 0 11.265462 37.675737 A 0.34999999 0.34999999 0 0 0 11.697477 37.433374 C 11.884191 36.775508 11.911075 36.745487 12.249898 35.956979 A 0.34999999 0.34999999 0 0 0 12.066447 35.496025 A 0.34999999 0.34999999 0 0 0 11.912968 35.469153 z M 6.8104371 35.579224 A 0.34999999 0.34999999 0 0 0 6.6579916 35.61333 A 0.34999999 0.34999999 0 0 0 6.4900432 36.077901 C 6.8537971 36.849686 6.8995644 36.963794 7.275525 37.55068 A 0.34999999 0.34999999 0 0 0 7.7576661 37.6561 A 0.34999999 0.34999999 0 0 0 7.865153 37.171892 C 7.496273 36.596059 7.4889681 36.557592 7.1230795 35.781279 A 0.34999999 0.34999999 0 0 0 6.9256755 35.599378 A 0.34999999 0.34999999 0 0 0 6.8104371 35.579224 z M 37.266976 35.758541 C 37.824418 36.007384 38.252274 36.283582 38.351664 36.412248 C 39.470758 37.860967 40.478725 40.332765 41.264665 42.741577 C 41.081342 42.827102 40.843701 42.927541 40.579952 43.025281 C 40.054181 43.220121 39.40258 43.430594 38.743889 43.626795 C 37.612614 43.963761 36.430928 44.260982 35.868612 44.369902 C 35.720622 43.333819 35.659935 42.361308 35.755957 41.724585 A 0.34999999 0.34999999 0 0 0 35.460885 41.32616 A 0.34999999 0.34999999 0 0 0 35.06246 41.621232 C 34.898899 42.705795 35.10088 44.26706 35.398356 45.765682 C 35.664349 47.105677 36.001391 48.240648 36.283057 49.01768 C 35.795513 49.241193 34.992758 49.400997 33.894572 49.449178 C 32.68234 49.502358 31.23714 49.481781 29.793014 49.533411 A 0.35003499 0.35003499 0 0 0 29.465385 49.803162 C 29.044229 49.752075 28.753623 49.588016 28.458728 49.357194 C 28.309256 49.240198 28.162084 49.103462 28.007076 48.958252 A 0.34999999 0.34999999 0 0 0 28.051001 48.773251 C 27.936347 46.030093 28.861567 44.265312 29.888615 43.013912 C 30.402139 42.388212 30.943524 41.893364 31.3986 41.482223 C 31.853678 41.071081 32.228092 40.774042 32.419727 40.374797 C 33.241469 38.662821 34.106526 38.032685 34.95704 37.542928 C 35.775224 37.071788 36.643828 36.729704 37.266976 35.758541 z M 23.744804 36.020541 C 23.452556 38.709619 23.03322 41.027066 23.03322 42.095622 C 23.03322 42.735971 23.310651 43.822789 23.67194 44.984335 C 23.961549 45.915425 24.303267 46.858066 24.632088 47.55472 C 24.362914 47.578843 24.113041 47.655696 23.898283 47.812586 A 0.34999999 0.34999999 0 0 0 23.760824 48.035311 C 23.755307 48.03476 23.749815 48.034311 23.744287 48.033761 A 0.34999999 0.34999999 0 0 0 23.675558 47.873047 C 23.19438 47.247832 22.662428 46.447071 22.236369 45.671631 C 21.81031 44.896191 21.495063 44.132181 21.4297 43.646432 C 21.36803 43.188179 21.54302 42.488119 21.761463 41.742155 C 21.979905 40.996192 22.234302 40.202969 22.234302 39.445138 C 22.234302 38.177695 22.713648 36.944959 23.251811 36.377108 C 23.318761 36.306462 23.502836 36.172137 23.744804 36.020541 z M 15.561841 36.637557 A 0.34999999 0.34999999 0 0 0 15.351518 36.718689 C 14.950093 37.052346 14.043311 37.587895 13.379028 38.201286 A 0.34999999 0.34999999 0 0 0 13.359391 38.695313 A 0.34999999 0.34999999 0 0 0 13.853418 38.71495 C 14.428587 38.183843 15.297519 37.675817 15.800586 37.257674 A 0.34999999 0.34999999 0 0 0 15.845545 36.763648 A 0.34999999 0.34999999 0 0 0 15.607316 36.638591 A 0.34999999 0.34999999 0 0 0 15.561841 36.637557 z M 3.065446 37.693824 A 0.34999999 0.34999999 0 0 0 2.8008626 37.804928 A 0.34999999 0.34999999 0 0 0 2.8184326 38.298955 C 3.4441721 38.878971 3.5294356 38.967297 4.0974243 39.371241 A 0.34999999 0.34999999 0 0 0 4.5842163 39.289075 A 0.34999999 0.34999999 0 0 0 4.5020508 38.800733 C 3.9447597 38.404394 3.9243013 38.370779 3.2948893 37.787358 A 0.34999999 0.34999999 0 0 0 3.065446 37.693824 z M 9.6640097 40.075074 C 9.7843203 41.75563 9.7428172 46.007463 9.5038127 47.754708 C 8.6690178 47.781565 7.8532115 47.816242 7.0652019 47.857028 C 7.0564059 47.17593 7.0116416 45.830853 6.9783855 44.388505 C 6.9422865 42.822832 6.9326916 41.253501 6.9825196 40.312268 C 7.695871 40.172268 8.6863574 40.083946 9.6640097 40.075074 z M 10.367843 40.082825 C 11.091547 40.105451 11.669405 40.169206 11.970846 40.226485 C 12.004346 41.31711 12.032167 42.867143 12.031307 44.330111 C 12.030842 45.116254 12.023876 45.856813 12.005986 46.44316 C 11.988116 47.029509 11.948437 47.494304 11.925887 47.595545 A 0.34999999 0.34999999 0 0 0 11.920203 47.697864 C 11.347096 47.706978 10.776127 47.718671 10.211263 47.734038 C 10.459852 45.808276 10.493698 41.868517 10.367843 40.082825 z M 0.42891439 42.268738 C 0.40042995 42.268774 0.37189985 42.269316 0.34364828 42.269772 A 0.34999999 0.34999999 0 0 0 0 42.624789 A 0.34999999 0.34999999 0 0 0 0.35553386 42.968954 C 1.1383081 42.956334 2.1233592 43.156257 2.7770915 43.179794 A 0.34999999 0.34999999 0 0 0 3.1403768 42.84183 A 0.34999999 0.34999999 0 0 0 2.8029297 42.480611 C 2.2975895 42.462416 1.311932 42.267628 0.42891439 42.268738 z M 41.481189 43.422156 C 41.506289 43.502816 41.532074 43.583763 41.556637 43.664002 C 41.912991 44.828109 42.211097 45.932466 42.452189 46.878276 C 42.318333 46.934944 42.170163 46.994567 42.009839 47.052942 C 41.495564 47.240194 40.858427 47.44086 40.2146 47.627067 C 38.926944 47.999484 37.57303 48.318314 37.169824 48.369141 A 0.34999999 0.34999999 0 0 0 36.867517 48.668348 C 36.621747 47.932452 36.317049 46.802257 36.084103 45.62874 C 36.046895 45.441298 36.011617 45.252659 35.978683 45.063916 C 36.622777 44.946506 37.776123 44.646266 38.94336 44.298588 C 39.612214 44.099362 40.274077 43.884737 40.822315 43.681572 C 41.069604 43.589931 41.289187 43.506114 41.481189 43.422156 z M 17.117302 43.944088 C 18.011243 43.947281 18.807526 44.086305 19.259806 44.240194 C 19.271716 44.882063 19.197914 45.582007 18.980237 46.204932 C 18.747514 46.870905 18.398855 47.43368 18.056779 47.721635 C 17.414614 47.705559 16.755645 47.693774 16.086873 47.686495 C 15.58716 47.101962 15.15615 46.431901 14.86731 45.802889 C 14.612417 45.247809 14.534751 44.777131 14.527279 44.404525 C 15.048591 44.156041 15.959851 43.961808 16.937468 43.945122 C 16.997861 43.944091 17.057705 43.943875 17.117302 43.944088 z M 3.3248617 46.036467 A 0.34999999 0.34999999 0 0 0 3.1775838 46.058688 C 2.2079434 46.424405 1.2832779 46.633802 0.55448812 47.130974 A 0.34999999 0.34999999 0 0 0 0.46302084 47.617249 A 0.34999999 0.34999999 0 0 0 0.94929607 47.709233 C 1.5145457 47.323623 2.4062828 47.096792 3.4240804 46.712911 A 0.34999999 0.34999999 0 0 0 3.6287191 46.261776 A 0.34999999 0.34999999 0 0 0 3.3248617 46.036467 z M 42.625822 47.569707 C 42.844745 48.459356 42.999223 49.142525 43.074374 49.458997 C 43.24168 50.163527 43.427689 50.70424 43.429908 51.201009 C 43.432108 51.697779 43.283163 52.186305 42.685767 52.890829 C 39.275725 56.912321 36.987617 58.008766 34.001542 58.459998 A 0.34999999 0.34999999 0 0 0 33.84548 58.43571 A 0.34999999 0.34999999 0 0 0 33.672364 58.50599 C 32.917163 58.607206 32.109202 58.674376 31.231686 58.741118 C 31.309215 58.486849 31.351953 58.189333 31.376896 57.849699 C 31.434436 57.066166 31.386772 56.059794 31.275611 55.008012 C 31.164467 53.956231 30.989863 52.863505 30.787268 51.921896 C 30.630724 51.194315 30.45033 50.693244 30.267403 50.222775 C 31.534408 50.189795 32.818435 50.19694 33.925578 50.148361 C 35.169271 50.093791 36.20625 49.99247 36.896456 49.570101 A 0.35003499 0.35003499 0 0 0 37.037016 49.14067 C 37.015759 49.087964 36.993401 49.028561 36.970353 48.966004 A 0.34999999 0.34999999 0 0 0 37.257674 49.062639 C 37.805397 48.993599 39.099874 48.677311 40.408387 48.298861 C 41.062643 48.109636 41.71043 47.906541 42.248068 47.710783 C 42.382083 47.661987 42.508044 47.615642 42.625822 47.569707 z M 25.472347 48.323666 C 25.473717 48.323945 25.475111 48.3239 25.476481 48.324182 C 26.011349 48.43424 26.586978 48.679209 26.929623 48.943266 C 27.300714 49.229233 27.619728 49.59117 28.02723 49.910132 C 28.434732 50.229096 28.949061 50.492718 29.636951 50.51733 A 0.34999999 0.34999999 0 0 0 29.68501 50.514746 C 29.822105 50.911982 29.96959 51.454954 30.101522 52.06814 C 30.129072 52.196184 30.156123 52.328123 30.182654 52.461914 C 28.342923 51.9084 25.991165 52.044886 24.950932 52.044886 C 24.505353 52.044886 23.702229 51.787932 23.08593 51.458875 C 22.777781 51.294347 22.512098 51.111534 22.351607 50.960714 C 22.272297 50.886184 22.221093 50.818924 22.201229 50.782947 C 22.226839 50.698747 22.238923 50.675687 22.302515 50.65634 C 22.375895 50.63402 22.548031 50.632221 22.771737 50.681661 C 23.219149 50.780541 23.849217 51.047615 24.486361 51.248035 C 24.488161 51.248552 24.492312 51.249502 24.494112 51.250102 A 0.35003499 0.35003499 0 0 0 24.697201 50.580376 C 24.694701 50.579578 24.691949 50.579108 24.689449 50.578308 C 24.687649 50.577799 24.683498 50.576841 24.681698 50.576241 C 24.277213 50.459021 23.605645 50.223891 23.009965 49.912199 C 23.654012 49.986805 24.324972 50.09274 24.855331 50.181433 A 0.34999999 0.34999999 0 0 0 25.25789 49.892562 A 0.34999999 0.34999999 0 0 0 24.970569 49.490003 C 24.116825 49.34723 22.903062 49.155012 21.946981 49.12155 C 21.805451 48.9418 21.746802 48.78068 21.757845 48.621322 A 0.34999999 0.34999999 0 0 0 21.757845 48.583081 C 23.139544 48.668191 24.317107 48.779963 25.172107 48.917945 A 0.34999999 0.34999999 0 0 0 25.572083 48.629073 A 0.34999999 0.34999999 0 0 0 25.472347 48.323666 z M 14.584123 48.384644 C 16.898313 48.388253 19.146284 48.442492 21.065898 48.543807 A 0.34999999 0.34999999 0 0 0 21.06073 48.572229 C 21.05429 48.665145 21.059002 48.755798 21.072616 48.844047 C 18.365867 48.726912 10.786721 48.651401 5.7810425 48.855416 C 5.5009302 48.866832 5.4283401 48.821883 5.3650472 48.759815 C 5.3436874 48.738868 5.321275 48.706937 5.2973511 48.665247 C 8.0406018 48.471715 11.37268 48.379635 14.584123 48.384644 z M 13.552661 49.429025 C 13.589598 49.429039 13.625348 49.428997 13.662215 49.429025 C 13.570343 49.505254 13.476169 49.59131 13.378512 49.687407 C 13.36199 49.608242 13.349276 49.522474 13.340788 49.429541 C 13.411095 49.429519 13.482582 49.428997 13.552661 49.429025 z M 15.365987 49.435743 C 16.962554 49.445973 18.42519 49.467513 19.566764 49.495687 C 19.63876 49.768793 19.715638 50.120502 19.793624 50.525082 C 19.222653 50.306972 18.47785 50.015664 17.60151 49.697225 A 0.35003499 0.35003499 0 0 0 17.300753 49.726681 C 16.522246 50.202291 15.662557 50.540265 14.967562 50.627918 C 15.064298 50.516539 15.144585 50.40177 15.208891 50.286853 C 15.365687 50.006657 15.448626 49.713225 15.365987 49.435743 z M 20.295919 49.515841 C 20.729136 49.5293 21.096216 49.543935 21.374923 49.558732 A 0.34999999 0.34999999 0 0 0 21.398177 49.556149 C 21.422807 49.587671 21.448325 49.618622 21.474658 49.648649 C 21.621167 49.815707 21.831425 49.935235 22.019328 50.072396 C 21.794599 50.180729 21.580233 50.357653 21.509798 50.623267 C 21.461138 50.806761 21.511392 50.981081 21.584212 51.115227 C 21.656982 51.249373 21.755049 51.361782 21.871017 51.47076 C 22.096072 51.682254 22.393431 51.879416 22.727295 52.059872 C 22.124679 52.9376 21.679246 54.388068 21.291207 56.201221 C 21.282111 56.243725 21.273345 56.287524 21.264335 56.330412 C 21.252326 56.185903 21.239836 56.041048 21.226611 55.89478 C 21.009013 53.48794 20.642146 50.919861 20.295919 49.515841 z M 14.655436 49.655884 C 14.663747 49.65548 14.67009 49.65645 14.677657 49.656401 C 14.676724 49.673791 14.696409 49.768633 14.597559 49.945272 C 14.496237 50.126337 14.30419 50.343988 14.003796 50.537484 C 13.892924 50.489758 13.796364 50.426623 13.712858 50.346798 C 14.10016 49.93554 14.411315 49.73516 14.584123 49.673971 C 14.62261 49.660346 14.641585 49.656557 14.655436 49.655884 z M 18.478976 50.773645 C 19.039264 50.986149 19.53135 51.176515 19.906279 51.316248 A 0.34999999 0.34999999 0 0 0 19.937284 51.324516 C 20.163012 52.661928 20.385014 54.35868 20.529496 55.956792 C 20.650199 57.291875 20.721253 58.566271 20.705196 59.511613 C 20.70467 59.542737 20.703864 59.572666 20.703129 59.603081 C 20.648151 59.992535 20.595529 60.387637 20.545516 60.788538 C 20.539802 60.783059 20.533646 60.776068 20.523295 60.761666 C 20.40038 60.590608 20.24417 60.26845 20.093864 59.855262 C 19.793252 59.028884 19.493926 57.83265 19.240169 56.570191 C 18.986413 55.307733 18.776011 53.976655 18.640723 52.859306 C 18.534847 51.984873 18.480261 51.22456 18.478976 50.773645 z M 28.929501 52.904781 C 29.392776 52.975551 29.837814 53.074916 30.23433 53.21484 A 0.34999999 0.34999999 0 0 0 30.324247 53.23241 C 30.426841 53.836555 30.515134 54.467632 30.580046 55.08191 C 30.688444 56.107704 30.7319 57.089393 30.679781 57.799056 C 30.653721 58.153888 30.600202 58.442034 30.537154 58.613477 C 30.505948 58.698347 30.479589 58.740237 30.464807 58.760755 C 30.251024 58.704211 30.066122 58.540194 29.873112 58.250192 C 29.611571 57.857221 29.39281 57.253318 29.238526 56.585694 C 28.937118 55.281433 28.868923 53.72004 28.929501 52.904781 z " />
</svg>