<?xml version="1.0" encoding="UTF-8" standalone="no"?>
<svg width="594.74481" height="595.95172" viewBox="0 0 157.35957 157.67889" xmlns="http://www.w3.org/2000/svg">
    <path style="fill:none;stroke:#000000;stroke-width:3.175;stroke-linecap:round;stroke-linejoin:round;stroke-dasharray:none;stroke-opacity:1" d="M 1.5875,6.1933757 18.79751,3.3647489 c 0,0 9.04232,15.1548841 17.17616,20.2072881 C 39.04695,17.952773 43.07898,7.9232953 43.2431,2.6711532 49.96724,3.817196 61.599812,2.7740217 64.345052,1.5873625 59.349682,14.444791 45.5358,28.41903 41.87462,32.856353 c -1.30627,9.062222 -0.90183,29.650235 1.34501,33.471477 -3.53631,-0.141509 -5.48355,-0.797781 -8.51167,0.230665 -2.78981,0.947509 -5.47341,0.402623 -5.47341,0.402623" />
    <path style="fill:none;stroke:#000000;stroke-width:3.175;stroke-linecap:round;stroke-linejoin:round;stroke-dasharray:none;stroke-opacity:1" d="m 3.88291,6.2217997 c 3.55842,5.8072123 15.0838,24.2831463 18.13114,27.4612553 -0.20918,9.597295 -0.57787,27.997631 1.174,32.679359" />
    <path style="fill:none;stroke:#000000;stroke-width:3.175;stroke-linecap:round;stroke-linejoin:round;stroke-dasharray:none;stroke-opacity:1" d="m 79.035832,4.8814244 c -2.93344,4.5028429 -17.18587,45.4347816 -17.71788,63.2567796 5.70308,0.987055 13.68023,0.01227 18.13628,-1.904405" />
    <path style="fill:none;stroke:#000000;stroke-width:3.175;stroke-linecap:round;stroke-linejoin:round;stroke-dasharray:none;stroke-opacity:1" d="m 77.811892,2.9934631 c 4.56459,1.71914 10.50864,3.1906516 16.04343,3.4500616 6.412178,10.8730313 22.209178,49.1735093 25.030988,54.8796903 -5.41019,0.8859 -12.36459,2.51192 -18.11774,5.958848 -1.775618,-5.98278 -3.990288,-15.364169 -2.011068,-22.339958 -5.41819,0.519246 -14.24649,-1.113788 -17.13894,-2.188655 -2.52363,7.239855 -4.77026,18.220499 -4.77026,20.802478" />
    <path style="fill:none;stroke:#000000;stroke-width:3.175;stroke-linecap:round;stroke-linejoin:round;stroke-dasharray:none;stroke-opacity:1" d="m 83.336282,19.759948 c 0,0 -2.40906,9.474534 -1.85356,13.903186 3.65712,-1.323604 7.26202,-1.645825 10.77426,0.0931 -3.23729,-4.734587 -6.34945,-12.087227 -6.34945,-12.087227" />
    <path style="fill:none;stroke:#000000;stroke-width:3.175;stroke-linecap:round;stroke-linejoin:round;stroke-dasharray:none;stroke-opacity:1" d="m 76.090322,149.17703 c -0.20238,-5.52274 -1.00259,-50.945084 -2.53834,-45.5358 -1.53574,5.40928 -9.21404,21.65535 -12.9278,27.60162 -5.653332,-1.75034 -11.674132,0.58758 -15.862992,2.07217 -2.96643,-3.90072 -9.33003,-22.48561 -6.93407,-17.60363 2.39596,4.88198 5.27828,26.11648 0.31703,40.38002 -4.38473,-0.7669 -7.98509,-0.70443 -16.0552,-4.89877 -1.12459,-10.0738 -3.27781,-43.67025 -0.3934,-63.148451 6.93239,-3.65012 21.56129,-5.128884 27.04338,-3.357566 0.2487,7.457471 4.16638,21.127397 6.57327,25.431077 2.018672,-8.2161 9.093382,-18.125149 9.488712,-24.020829 6.18298,-2.059433 15.19259,1.104456 22.01,0.290054 3.95947,7.435347 4.84163,26.460565 5.64445,33.129865 0.80283,6.66929 4.02274,21.59062 2.42296,25.10404 -5.29847,1.50057 -11.83897,2.22538 -20.34579,1.82061" />
    <path style="fill:none;stroke:#000000;stroke-width:3.175;stroke-linecap:round;stroke-linejoin:round;stroke-dasharray:none;stroke-opacity:1" d="m 112.12054,141.56912 c -1.5163,-11.49314 -6.48433,-47.143432 -6.52163,-53.540657" />
    <path style="fill:none;stroke:#000000;stroke-width:3.175;stroke-linecap:round;stroke-linejoin:round;stroke-dasharray:none;stroke-opacity:1" d="m 121.94053,80.443388 c 0,0 1.66364,45.586882 2.93735,50.141702 8.67495,-1.44063 18.67229,0.0533 27.89687,0.16008 0.74315,4.05061 2.05893,9.40138 2.99739,11.25996 -10.61089,2.79227 -37.60669,3.75966 -43.1286,3.75966" />
    <path style="fill:none;stroke:#000000;stroke-width:3.175;stroke-linecap:round;stroke-linejoin:round;stroke-dasharray:none;stroke-opacity:1" d="M 103.45054,88.132227 124.58837,81.73211" />
</svg>