<?xml version="1.0" encoding="UTF-8"?>
<svg xmlns="http://www.w3.org/2000/svg" width="496.01691" height="464.94199" viewBox="0 0 131.2378 123.01589">
    <path style="fill:#000000;fill-opacity:1;stroke:none;stroke-width:5;stroke-linecap:round;stroke-linejoin:round;stroke-miterlimit:4;stroke-dasharray:none;stroke-opacity:1" d="m 93.11882,120.65223 c 0.475476,-7.72972 -0.96891,-30.81177 -6.00732,-40.888573 4.65083,1.937848 19.18468,-7.170034 20.54118,-17.053053 1.35649,-9.883021 -2.71299,-17.440625 -7.751388,-24.223089 6.007328,-1.744062 5.813538,-21.122532 2.712978,-21.510101 C 99.513722,16.589844 87.1115,25.116371 87.49907,30.736128 75.48442,28.023142 58.43136,30.154773 50.48619,32.86776 46.6105,25.50394 39.05289,24.922586 32.27043,27.054218 c 0.58135,5.425972 2.90677,10.076804 6.20111,14.340068 -5.81354,8.332742 -3.10056,18.797117 -2.13163,27.711213 0.96892,8.914096 15.30899,13.177359 22.86659,10.851944 -1.74406,4.844616 -1.55028,12.402219 0,16.665483 -8.13895,1.356494 -16.08413,-2.325415 -19.37847,-6.588681 -3.29434,-4.263263 -7.48012,-4.653604 -18.40955,-4.263263 -5.42597,0.193787 -6.39489,6.58868 0.96893,6.782464 7.36382,0.193786 13.37114,6.588684 17.63441,12.402224 4.26326,5.81354 12.596,6.00733 20.1536,1.3565 0.58136,4.45704 -0.172116,10.15979 -0.172116,15.97333 C 40.155287,126.51171 14.682051,111.53757 10.034907,99.48942 5.3877621,87.44127 -4.0786433,64.205548 1.9454329,48.0266 7.9695089,31.847653 21.394593,-0.51024268 67.521805,0.00610662 113.64902,0.52245602 130.34431,21.348548 131.20489,35.462098 c 0.86059,14.11355 -15.24292,86.215312 -38.08607,85.190132 z" />
</svg>