<?xml version="1.0" encoding="UTF-8" standalone="no"?>
<svg width="598.80865" height="252.31908" viewBox="0 0 158.4348 66.759421" xmlns="http://www.w3.org/2000/svg">
    <path style="fill:#000000;fill-opacity:1;stroke:#000000;stroke-width:3.175;stroke-linecap:round;stroke-linejoin:round;stroke-dasharray:none;stroke-opacity:1" d="m 66.399946,62.626797 c -0.20238,-5.52274 -0.0167,-23.885054 -0.47765,-31.696454 -5.67407,5.75804 -19.73304,16.823021 -23.4468,22.769294 -5.74987,-7.004673 -10.23782,-14.098594 -16.14683,-24.779504 0,0 -2.32215,16.51239 -3.26386,30.806444 -4.38473,-0.7669 -13.4519702,0.77962 -21.2088398,3.41605 -1.12458999,-10.0738 1.50177,-37.840344 5.3822196,-57.3185409 6.9323902,-3.65012 29.7007502,-4.184156 35.1828402,-2.412838 0.2487,7.4574709 3.95856,15.3688749 6.36545,19.6725549 4.80998,-5.989419 11.39812,-15.6214049 14.52908,-21.4963289 7.34528,1.871192 17.91497,3.320352 24.73238,2.50595 -0.60593,18.7833489 -0.37574,43.1299699 -2.51108,58.5028729 -6.31388,0.58707 -11.46252,0.24529 -19.32962,-0.0892" />
    <path style="fill:#000000;fill-opacity:1;stroke:#000000;stroke-width:3.175;stroke-linecap:round;stroke-linejoin:round;stroke-dasharray:none;stroke-opacity:1" d="m 122.19559,5.2726741 c 4.91935,1.052531 20.55591,-0.28819 22.7578,-0.822966 -0.4959,7.4198199 -2.7173,23.8716449 -3.29486,29.5638149 6.16685,-0.48112 10.87147,-0.1699 15.18899,-0.1699 -6.55402,6.63249 -25.36643,27.143764 -28.84067,31.328354 -8.77838,-6.03172 -20.99739,-16.929813 -28.404764,-23.979764 6.210044,-0.51319 13.813154,-0.46727 20.830984,-1.60874 0.69631,-5.7006 1.08163,-23.183929 1.76252,-34.3107989 z" />
</svg>