<?xml version="1.0" encoding="UTF-8" standalone="no"?>
<svg width="1209.361" height="359.88467" viewBox="0 0 319.97675 95.21949" version="1.1" id="svg21" xmlns="http://www.w3.org/2000/svg" xmlns:svg="http://www.w3.org/2000/svg">
    <path style="fill:none;stroke:#000000;stroke-width:5;stroke-linecap:round;stroke-linejoin:round;stroke-miterlimit:4;" d="m 145.508,2.5 c 17.93955,24.88523 60.10357,87.10579 63.86926,90.21949" />
    <path style="fill:none;stroke:#000000;stroke-width:5;stroke-linecap:round;stroke-linejoin:round;stroke-miterlimit:4;" d="M 175.18765,44.566816 C 185.36965,32.607191 197.8301,13.805345 204.23538,4.606325" />
    <path style="fill:none;stroke:#000000;stroke-width:5;stroke-linecap:round;stroke-linejoin:round;stroke-miterlimit:4;" d="M 2.5,92.20302 C 4.63426,65.0536 5.90052,25.60186 3.60793,3.01683 18.62545,22.64945 39.22436,62.41267 62.90127,91.41117" />
    <path style="fill:none;stroke:#000000;stroke-width:5;stroke-linecap:round;stroke-linejoin:round;stroke-miterlimit:4;" d="M 135.93708,4.42722 H 79.58284 c -1.91223,14.19094 1.74062,64.75503 -1.56706,83.21049 24.03911,0 43.21005,-0.42687 55.76613,1.16129" />
    <path style="fill:none;stroke:#000000;stroke-width:5;stroke-linecap:round;stroke-linejoin:round;stroke-miterlimit:4;" d="m 75.58501,45.8444 c 15.70457,-2.96384 53.92575,-3.27561 59.5742,-1.42118" />
    <path style="fill:none;stroke:#000000;stroke-width:5;stroke-linecap:round;stroke-linejoin:round;stroke-miterlimit:4;" d="M 212.45707,6.15047 C 225.28754,5.8194 272.08914,4.58906 277.81848,5.63315" />
    <path style="fill:none;stroke:#000000;stroke-width:5;stroke-linecap:round;stroke-linejoin:round;stroke-miterlimit:4;" d="m 247.97549,3.56446 c 3.2254,17.61345 3.37224,69.01632 -0.29337,84.22343" />
    <path style="fill:none;stroke:#000000;stroke-width:3;stroke-linecap:round;stroke-linejoin:round;stroke-miterlimit:4;" d="m 278.12404,83.66444 c 0.82418,-1.54154 5.84724,-4.63148 5.84724,-0.27435" />
    <path style="fill:none;stroke:#000000;stroke-width:3;stroke-linecap:round;stroke-linejoin:round;stroke-miterlimit:4;" d="m 300.89361,61.33891 c 1.12401,6.05568 0.79352,22.13927 -2.63384,22.76372 -3.42736,0.62444 -8.74072,-4.36621 -8.26601,-7.34677" />
    <path style="fill:none;stroke:#000000;stroke-width:3;stroke-linecap:round;stroke-linejoin:round;stroke-miterlimit:4;" d="m 318.47676,61.16719 c -5.53484,0.72912 -14.17809,8.62325 -7.6767,10.73119 6.5014,2.10793 8.25762,7.16052 0.95004,10.20524" />
    <path style="fill:none;stroke:#000000;stroke-width:5;stroke-linecap:round;stroke-linejoin:round;stroke-miterlimit:4;" d="M 142.73956,90.74408 C 150.55424,81.47674 162.6964,64.65462 169.10168,55.4556" />
</svg>