<?xml version="1.0" encoding="UTF-8" standalone="no"?>
<svg width="868.32037" height="621.88562" viewBox="0 0 229.7431 164.54057" xmlns="http://www.w3.org/2000/svg">
    <path style="fill:none;stroke:#000000;stroke-width:4.7625;stroke-linecap:round;stroke-linejoin:round;stroke-miterlimit:4;" d="M 50.888256,63.917566 C 98.616926,86.509136 158.83441,29.703098 126.61773,9.825079 84.797896,-15.978174 6.02331,31.780276 2.523209,60.099268 -0.976897,88.418276 60.427726,101.05706 50.888256,134.23781 36.251463,185.14839 -19.113787,155.8748 21.296481,129.78313 61.706751,103.69146 84.298326,89.372836 84.298326,89.372836" />
    <path style="fill:none;stroke:#000000;stroke-width:4.7625;stroke-linecap:round;stroke-linejoin:round;stroke-miterlimit:4;" d="m 96.071386,103.69146 c 4.454684,-18.136904 -16.22774,-26.091674 -24.8189,8.90935 -8.591162,35.00103 21.637,20.36424 32.455494,-13.682214 -9.545744,28.955394 -11.915564,51.001064 2.86372,27.682634 14.31861,-22.59157 26.09166,-50.274204 26.09166,-50.274204 -0.63636,20.68243 -2.54552,21.63699 6.68202,39.137504 9.22756,17.50052 -28.31899,28.95539 -19.09145,17.18233 9.22755,-11.77307 30.86453,-33.728264 42.3194,-61.410897 -1.59094,33.410077 17.50053,42.319407 6.68204,52.819727 -10.8185,10.50031 -27.88517,7.41852 -7.00022,-11.77306 35.31921,-32.455514 91.63903,7.3184 50.91058,22.59156" />
</svg>